<?xml version="1.0" standalone="no"?>
<!DOCTYPE svg PUBLIC "-//W3C//DTD SVG 20010904//EN"
 "http://www.w3.org/TR/2001/REC-SVG-20010904/DTD/svg10.dtd">
<svg version="1.0" xmlns="http://www.w3.org/2000/svg"
 width="1024.000000pt" height="1024.000000pt" viewBox="0 0 1024.000000 1024.000000"
 preserveAspectRatio="xMidYMid meet">

<g transform="translate(0.000000,1024.000000) scale(0.100000,-0.100000)"
fill="#000000" stroke="none">
<path d="M5873 7722 c-91 -72 -193 -226 -193 -290 0 -30 2 -32 35 -32 27 0 45
9 78 39 79 73 172 257 154 304 -9 24 -20 21 -74 -21z"/>
<path d="M6524 7680 c-55 -28 -176 -147 -253 -250 l-63 -85 88 91 c49 50 113
117 142 148 46 50 61 58 128 78 54 16 70 24 57 29 -31 13 -57 10 -99 -11z"/>
<path d="M6702 7640 c30 -23 58 -78 58 -112 0 -14 -22 -56 -48 -94 -77 -109
-81 -126 -17 -64 71 69 73 73 81 153 7 66 7 66 -29 102 -19 19 -43 35 -52 35
-14 0 -13 -4 7 -20z"/>
<path d="M5956 7605 c26 -131 23 -217 -12 -335 -42 -142 -101 -206 -229 -246
-56 -18 -13 -17 64 1 35 9 66 14 68 11 2 -2 8 -71 13 -152 4 -86 15 -170 24
-199 9 -27 16 -78 16 -113 0 -72 18 -82 34 -18 10 38 4 68 -28 151 -10 27 -15
77 -16 155 -1 70 -6 130 -15 154 -13 37 -12 39 19 80 67 88 106 217 106 351 0
76 -4 98 -25 140 -19 38 -24 43 -19 20z"/>
<path d="M6860 7575 c-24 -14 -24 -14 20 -15 126 -1 188 -101 142 -232 -23
-65 -13 -86 18 -36 26 43 27 137 1 193 -39 85 -120 125 -181 90z"/>
<path d="M6336 7412 c-15 -32 -27 -69 -25 -83 1 -13 -8 -44 -19 -69 -38 -80
-21 -140 40 -140 41 0 118 59 185 143 51 62 63 84 63 113 0 42 -45 94 -82 94
-23 0 -98 -44 -98 -58 -1 -4 -19 -27 -40 -50 l-39 -44 24 73 c14 40 24 74 22
76 -2 1 -16 -23 -31 -55z"/>
<path d="M6056 7394 c11 -30 325 -506 352 -534 57 -58 9 25 -156 271 -160 240
-213 311 -196 263z"/>
<path d="M5614 7382 c-25 -20 -122 -136 -145 -172 -32 -52 -27 -63 9 -20 20
24 70 79 110 120 39 42 72 79 72 83 0 13 -25 7 -46 -11z"/>
<path d="M7125 7310 c11 -4 31 -20 45 -35 22 -24 25 -35 25 -103 -1 -55 -6
-87 -19 -112 -23 -44 -138 -200 -166 -225 -12 -11 -26 -28 -32 -38 -17 -33 22
-4 84 60 59 62 150 227 163 295 14 75 -41 169 -98 167 -21 0 -21 -1 -2 -9z"/>
<path d="M6525 7203 c-65 -61 -60 -70 10 -18 24 18 75 86 63 85 -2 -1 -34 -31
-73 -67z"/>
<path d="M6885 7099 c-164 -196 -162 -194 -138 -181 40 22 189 189 221 250 18
34 32 62 30 62 -2 0 -52 -59 -113 -131z"/>
<path d="M6566 7168 c-37 -58 -56 -105 -37 -94 12 8 85 146 76 146 -3 0 -20
-24 -39 -52z"/>
<path d="M6635 7157 c-98 -102 -151 -227 -113 -265 16 -16 73 -15 107 2 32 17
144 134 172 180 42 69 6 146 -68 146 -33 0 -45 -7 -98 -63z"/>
<path d="M5913 7078 c13 -37 248 -378 257 -373 13 8 10 14 -115 195 -105 153
-154 214 -142 178z"/>
<path d="M6875 6981 c-29 -13 -137 -129 -168 -181 -37 -64 -42 -95 -23 -125
24 -36 80 -34 132 4 43 32 132 123 158 161 26 39 21 87 -13 121 -30 30 -50 34
-86 20z"/>
<path d="M7213 6949 c35 -49 77 -124 77 -139 0 -8 -41 -54 -91 -102 -49 -49
-86 -88 -82 -88 16 0 98 57 124 86 48 53 59 77 59 126 0 39 -6 54 -31 83 -18
20 -41 41 -53 47 -20 11 -20 11 -3 -13z"/>
<path d="M6670 6882 c0 -12 28 -48 33 -42 8 8 -11 50 -23 50 -5 0 -10 -4 -10
-8z"/>
<path d="M6540 6851 c-55 -18 -69 -26 -51 -29 28 -4 104 23 121 44 7 7 11 13
9 13 -2 -1 -38 -13 -79 -28z"/>
<path d="M6340 6770 c-30 -21 -71 -44 -93 -51 -45 -15 -58 -29 -25 -29 47 0
188 83 188 111 0 15 -13 10 -70 -31z"/>
<path d="M6995 6772 c-49 -35 -121 -113 -136 -146 -16 -35 -4 -74 26 -82 34
-9 98 25 170 89 52 47 59 58 59 90 0 71 -57 94 -119 49z"/>
<path d="M6163 6628 c-7 -15 -37 -43 -67 -62 -53 -34 -76 -63 -38 -49 65 24
127 85 120 119 -2 14 -6 12 -15 -8z"/>
<path d="M7079 6538 c-6 -12 -27 -45 -47 -71 l-35 -48 -44 48 c-49 54 -42 31
17 -57 55 -81 89 -106 55 -41 -13 26 -13 30 4 45 21 19 76 135 68 143 -3 2
-11 -6 -18 -19z"/>
<path d="M6029 6440 c15 -42 305 -515 322 -526 17 -10 21 3 8 28 -26 49 -291
465 -314 493 -24 29 -25 29 -16 5z"/>
<path d="M2280 5657 c0 -738 1 -777 20 -851 28 -112 73 -190 160 -276 113
-113 225 -165 386 -177 234 -17 468 121 572 337 22 47 45 112 51 144 7 39 11
326 11 828 l0 768 -50 0 -50 0 -2 -807 -3 -808 -38 -79 c-52 -106 -137 -191
-243 -243 l-79 -38 -135 0 -135 0 -75 37 c-135 67 -229 173 -270 305 -19 63
-20 92 -20 849 l0 784 -50 0 -50 0 0 -773z"/>
<path d="M4540 5390 l0 -1040 45 0 45 0 0 403 c0 442 3 468 60 556 67 106 168
155 303 149 135 -6 231 -67 289 -186 l33 -67 5 -335 c6 -370 5 -365 74 -438
47 -51 102 -75 171 -76 l60 -1 3 33 c5 46 -12 62 -63 62 -51 0 -100 30 -129
80 -20 33 -21 55 -26 370 l-5 335 -32 68 c-93 196 -315 299 -512 238 -72 -22
-149 -69 -190 -116 -16 -19 -32 -31 -35 -28 -3 4 -6 237 -6 520 l0 513 -45 0
-45 0 0 -1040z"/>
<path d="M6940 6240 c-134 -102 -262 -189 -399 -271 -78 -46 -137 -85 -131
-87 20 -7 198 87 309 162 62 42 111 74 110 69 -2 -5 -28 -58 -58 -118 -44 -89
-69 -124 -128 -184 -40 -41 -71 -77 -68 -79 2 -3 24 7 48 21 76 45 122 106
201 269 64 131 80 157 116 181 39 27 77 73 69 82 -3 2 -34 -18 -69 -45z"/>
<path d="M3793 5541 c-112 -41 -185 -116 -224 -227 -18 -49 -19 -88 -19 -509
l0 -455 45 0 44 0 3 458 c3 439 4 459 24 502 23 51 90 115 140 136 43 18 155
18 198 0 46 -19 104 -72 129 -120 21 -40 22 -54 27 -411 l5 -370 30 -54 c50
-90 134 -141 232 -141 l43 0 0 45 c0 49 2 47 -85 59 -28 4 -50 16 -80 46 l-40
40 -5 373 c-6 391 -7 400 -55 477 -33 52 -109 118 -163 141 -69 30 -183 35
-249 10z"/>
<path d="M6031 5540 c-90 -26 -139 -50 -214 -107 -155 -120 -249 -329 -232
-523 38 -445 513 -699 892 -476 52 31 149 119 188 171 14 19 14 18 15 -20 0
-66 19 -115 62 -161 46 -49 107 -77 164 -72 36 3 39 5 42 36 4 45 -12 62 -60
62 -32 0 -47 7 -74 34 l-34 34 0 235 c0 270 -11 353 -63 462 -75 156 -205 267
-374 321 -82 26 -226 27 -312 4z m286 -94 c77 -21 152 -68 220 -138 99 -103
143 -213 143 -354 0 -223 -139 -417 -348 -486 -68 -22 -226 -24 -293 -4 -156
47 -294 185 -340 339 -27 88 -23 242 8 329 51 138 177 261 317 309 64 22 220
24 293 5z"/>
<path d="M6107 5032 c-33 -36 -18 -75 51 -137 l43 -38 51 51 c54 53 66 93 38
126 -15 19 -61 21 -78 4 -9 -9 -15 -9 -24 0 -18 18 -63 14 -81 -6z"/>
<path d="M7332 5545 c-196 -61 -255 -300 -105 -424 48 -40 168 -102 253 -131
235 -81 324 -162 324 -291 -1 -91 -61 -165 -174 -218 -79 -36 -238 -42 -324
-12 -120 42 -186 107 -194 191 l-5 50 -50 0 -50 0 7 -57 c17 -141 130 -245
313 -287 181 -41 347 0 471 118 74 69 102 130 102 222 0 59 -5 81 -31 132 -52
104 -142 167 -341 238 -100 36 -231 108 -262 145 -31 37 -36 114 -9 159 27 47
100 80 174 80 142 0 228 -61 244 -172 l6 -48 46 0 46 0 -6 61 c-10 113 -88
200 -213 239 -75 23 -159 25 -222 5z"/>
<path d="M8082 4373 c-1 -66 3 -122 9 -137 16 -35 61 -52 98 -37 66 28 66 124
-1 152 -24 10 -35 9 -63 -4 l-34 -16 -4 77 c-2 64 -3 58 -5 -35z m123 -48 c14
-13 25 -36 25 -50 0 -31 -41 -75 -70 -75 -29 0 -70 44 -70 75 0 31 41 75 70
75 12 0 32 -11 45 -25z"/>
<path d="M8150 4280 c0 -5 7 -10 16 -10 8 0 12 5 9 10 -3 6 -10 10 -16 10 -5
0 -9 -4 -9 -10z"/>
<path d="M8252 4298 c-2 -56 1 -71 18 -88 22 -22 42 -25 71 -10 13 8 19 7 19
0 0 -24 -22 -51 -53 -64 -21 -10 -26 -15 -14 -15 10 -1 32 12 48 28 28 29 29
32 27 123 -2 78 -2 83 -5 28 -4 -67 -21 -100 -53 -100 -32 0 -49 33 -53 100
l-3 65 -2 -67z"/>
<path d="M1666 3970 c-66 -17 -155 -71 -201 -122 -192 -214 -132 -540 123
-665 72 -36 81 -38 171 -38 87 0 102 3 161 31 36 17 80 43 98 58 l32 28 0 144
c0 121 2 144 15 144 8 0 15 9 15 20 0 19 -7 20 -165 20 -158 0 -165 -1 -165
-20 0 -19 7 -20 135 -20 l135 0 0 -135 0 -135 -41 -30 c-112 -81 -258 -93
-381 -32 -78 38 -138 100 -177 182 -23 49 -26 67 -26 160 0 92 4 112 26 160
63 134 180 212 325 218 69 3 90 0 146 -22 78 -31 102 -32 128 -6 23 23 27 70
6 70 -8 0 -17 -11 -20 -25 -8 -32 -36 -33 -101 -4 -55 24 -178 34 -239 19z"/>
<path d="M2642 3648 c3 -302 5 -336 22 -368 48 -90 119 -134 216 -134 163 0
273 148 226 306 -51 175 -252 233 -388 110 l-38 -34 0 226 c0 221 0 226 -21
226 -20 0 -20 -3 -17 -332z m326 -77 c72 -37 112 -104 112 -186 0 -220 -284
-285 -384 -88 -34 68 -11 189 45 239 63 56 157 71 227 35z"/>
<path d="M2855 3422 c-11 -12 -4 -40 15 -57 19 -17 21 -17 40 0 31 28 22 59
-17 61 -18 1 -35 -1 -38 -4z"/>
<path d="M3941 3668 c0 -213 4 -323 12 -345 35 -95 127 -168 227 -180 46 -5
50 -4 50 16 0 18 -6 21 -37 21 -76 1 -153 54 -197 135 -20 38 -21 55 -24 353
-3 264 -5 312 -18 312 -12 0 -14 -46 -13 -312z"/>
<path d="M5386 3971 c-3 -5 -73 -186 -155 -403 -82 -216 -152 -401 -156 -410
-5 -14 -2 -18 13 -18 21 0 22 2 123 273 l44 117 149 -2 149 -3 72 -190 c60
-159 76 -191 94 -193 25 -4 40 -48 -165 488 -125 328 -148 374 -168 341z m84
-225 c33 -86 60 -161 60 -167 0 -5 -56 -9 -129 -9 l-129 0 59 158 c33 86 62
163 64 171 3 8 8 12 10 9 3 -2 32 -75 65 -162z"/>
<path d="M7150 3805 l0 -175 -45 0 c-38 0 -45 -3 -45 -20 0 -17 7 -20 44 -20
l44 0 4 -122 c3 -109 7 -129 30 -174 34 -65 98 -120 162 -139 70 -21 96 -20
96 5 0 16 -7 20 -35 20 -41 0 -120 37 -151 72 -51 55 -64 100 -64 223 l0 115
60 0 c53 0 60 2 60 20 0 18 -7 20 -60 20 l-60 0 0 175 c0 168 -1 175 -20 175
-19 0 -20 -7 -20 -175z"/>
<path d="M7980 3682 c0 -372 8 -542 26 -542 10 0 13 42 16 183 3 163 5 185 23
209 66 89 198 73 241 -29 10 -22 14 -75 14 -165 0 -111 3 -137 18 -154 36 -45
102 -60 102 -24 0 15 -7 20 -24 20 -15 0 -33 11 -45 26 -19 24 -21 40 -21 161
0 149 -6 170 -64 221 -60 52 -141 55 -207 6 l-34 -25 -3 206 c-2 197 -3 205
-22 205 -19 0 -20 -8 -20 -298z"/>
<path d="M3340 3766 c0 -12 9 -29 19 -38 18 -15 21 -15 41 7 30 32 20 53 -24
53 -30 0 -36 -3 -36 -22z"/>
<path d="M7473 3774 c-3 -8 5 -26 18 -40 l24 -25 23 26 c13 15 21 32 19 39 -6
18 -77 18 -84 0z"/>
<path d="M2267 3616 c-59 -22 -103 -62 -132 -121 -55 -112 -17 -254 85 -317
93 -57 196 -47 281 29 l49 45 0 -32 c0 -38 39 -80 75 -80 18 0 25 5 25 20 0
13 -7 20 -19 20 -42 0 -51 25 -51 138 0 135 -10 168 -65 230 -67 75 -158 100
-248 68z m147 -36 c50 -19 105 -80 121 -134 52 -175 -126 -327 -286 -243 -146
77 -136 306 16 373 35 16 113 18 149 4z"/>
<path d="M2310 3402 c0 -11 9 -27 20 -37 19 -17 21 -17 40 0 11 10 20 26 20
37 0 14 -8 18 -40 18 -32 0 -40 -4 -40 -18z"/>
<path d="M3224 3611 c-17 -10 -40 -31 -52 -46 -21 -26 -22 -38 -22 -226 0
-167 2 -199 14 -199 12 0 15 33 18 195 l3 195 26 26 c15 14 42 29 60 33 20 4
35 14 37 24 5 24 -44 23 -84 -2z"/>
<path d="M3360 3385 c0 -238 1 -245 20 -245 19 0 20 7 20 245 0 238 -1 245
-20 245 -19 0 -20 -7 -20 -245z"/>
<path d="M3618 3621 c-79 -26 -137 -90 -159 -176 -46 -183 123 -347 304 -293
21 6 60 31 86 54 37 34 44 45 34 55 -11 11 -19 7 -45 -19 -65 -62 -156 -79
-233 -43 -65 30 -115 96 -115 152 0 18 9 19 210 19 l210 0 0 29 c0 37 -24 104
-50 142 -46 64 -167 104 -242 80z m135 -45 c57 -24 117 -103 117 -152 0 -12
-32 -14 -190 -14 -124 0 -190 4 -190 10 0 23 33 87 58 114 51 54 136 72 205
42z"/>
<path d="M4380 3617 c-49 -16 -123 -93 -138 -143 -54 -184 73 -351 252 -330
55 6 125 43 156 83 17 22 18 28 7 35 -10 5 -26 -4 -51 -26 -116 -111 -304 -52
-340 107 l-6 27 210 0 210 0 0 42 c0 55 -33 120 -81 161 -62 54 -140 69 -219
44z m160 -47 c21 -11 50 -34 63 -52 24 -32 51 -98 43 -105 -1 -2 -89 -2 -194
-1 l-190 3 13 39 c19 55 45 87 91 113 50 29 121 30 174 3z"/>
<path d="M5865 3606 c-88 -40 -138 -119 -138 -216 0 -103 58 -188 157 -225 80
-31 165 -11 241 56 l35 31 0 -48 c-1 -99 -51 -182 -134 -220 -28 -13 -66 -24
-83 -24 -26 0 -33 -4 -33 -20 0 -25 26 -26 96 -5 65 19 126 72 158 137 25 49
26 60 26 212 0 148 -2 165 -24 212 -53 114 -187 163 -301 110z m186 -39 c64
-34 104 -102 104 -177 0 -185 -230 -271 -348 -131 -107 128 -16 330 149 331
34 0 65 -8 95 -23z"/>
<path d="M5925 3409 c-4 -6 3 -22 16 -35 l23 -25 24 25 c14 13 21 29 18 35 -9
14 -73 14 -81 0z"/>
<path d="M6370 3610 c-98 -46 -144 -118 -144 -225 0 -111 54 -191 158 -230
168 -64 349 104 306 284 -34 145 -194 230 -320 171z m185 -43 c110 -63 139
-221 58 -318 -75 -88 -222 -92 -299 -7 -76 82 -72 222 8 294 64 59 161 72 233
31z"/>
<path d="M6426 3404 c-5 -14 26 -54 42 -54 16 0 44 39 39 54 -7 19 -74 19 -81
0z"/>
<path d="M6844 3620 c-34 -14 -64 -59 -64 -98 0 -42 49 -94 107 -113 105 -33
152 -72 153 -125 0 -67 -64 -109 -155 -102 -66 6 -106 31 -120 76 -12 41 -35
42 -35 1 0 -61 87 -119 180 -119 49 0 120 38 147 79 29 43 29 89 0 132 -23 34
-38 44 -160 100 -83 37 -101 65 -70 107 16 21 30 28 66 30 39 3 51 -1 72 -22
14 -14 25 -34 25 -46 0 -14 7 -20 21 -20 19 0 21 4 15 32 -15 73 -108 118
-182 88z"/>
<path d="M7500 3385 c0 -238 1 -245 20 -245 19 0 20 7 20 245 0 238 -1 245
-20 245 -19 0 -20 -7 -20 -245z"/>
<path d="M7670 3613 c-19 -10 -45 -33 -57 -52 -22 -32 -23 -43 -23 -227 0
-187 1 -194 20 -194 19 0 20 7 20 196 l0 196 29 29 c23 23 38 29 71 29 33 0
48 -6 71 -29 l29 -29 0 -139 c0 -76 5 -155 11 -176 11 -41 56 -77 97 -77 34 0
24 32 -13 42 -51 13 -55 28 -55 192 0 132 -3 155 -20 183 -39 65 -117 89 -180
56z"/>
<path d="M8550 3610 c-98 -46 -144 -118 -144 -225 0 -111 54 -191 158 -230
168 -64 349 104 306 284 -34 145 -194 230 -320 171z m185 -43 c110 -63 139
-221 58 -318 -75 -88 -222 -92 -299 -7 -76 82 -72 222 8 294 64 59 161 72 233
31z"/>
<path d="M8606 3404 c-5 -14 26 -54 42 -54 16 0 44 39 39 54 -7 19 -74 19 -81
0z"/>
</g>
</svg>
